# xmcd CD database file
# Generated: lun may 5 19:31:00 2003 by KSCD
# 
# Track frame offsets:
#       150
#       15120
#       33150
#       48239
#       71328
#       94017
#       114666
#       133256
#       149785
#       176894
#       191744
#
# Disc length: 2609 seconds
#
# Revision: 1
# Processed by: cddbd v1.4PL0 Copyright (c) Steve Scherf et al.
# Submitted via: Kscd 1.3.3
#
DISCID=990a2f0b
DTITLE=Simply Red - Home
DYEAR=1900
DGENRE=
TTITLE0=Home
TTITLE1=Fake
TTITLE2=Sunrise
TTITLE3=You Make Me Feel Brand New
TTITLE4=Home Loan Blues
TTITLE5=Positively 4th Street
TTITLE6=Lost Weekend
TTITLE7=Money In My Pocket (Plan B Mix)
TTITLE8=Something For You
TTITLE9=It's You
TTITLE10=Home (Reprise)
EXTD=
EXTT0=
EXTT1=
EXTT2=
EXTT3=
EXTT4=
EXTT5=
EXTT6=
EXTT7=
EXTT8=
EXTT9=
EXTT10=
PLAYORDER=
